<?xml version="1.0" encoding="utf-8"?>
<!-- Generator: Adobe Illustrator 23.0.1, SVG Export Plug-In . SVG Version: 6.00 Build 0)  -->
<svg version="1.1" id="Layer_1" xmlns="http://www.w3.org/2000/svg" xmlns:xlink="http://www.w3.org/1999/xlink" x="0px" y="0px"
	 viewBox="0 0 47 47" style="enable-background:new 0 0 47 47;" xml:space="preserve">
<style type="text/css">
	.st0{fill:#FFFFFF;}
</style>
<path class="st0" d="M37.83,23.5c0,7.91-6.42,14.33-14.33,14.33S9.17,31.41,9.17,23.5S15.59,9.17,23.5,9.17S37.83,15.59,37.83,23.5z
	 M46.98,23.5c0-12.95-10.53-23.48-23.48-23.48S0.02,10.55,0.02,23.5S10.55,46.98,23.5,46.98S46.98,36.45,46.98,23.5z M44.76,23.5
	c0,11.72-9.54,21.26-21.26,21.26S2.24,35.22,2.24,23.5S11.78,2.24,23.5,2.24S44.76,11.78,44.76,23.5z"/>
</svg>
