<?xml version="1.0" encoding="utf-8"?>
<!-- Generator: Adobe Illustrator 23.0.1, SVG Export Plug-In . SVG Version: 6.00 Build 0)  -->
<svg version="1.1" id="Layer_1" xmlns="http://www.w3.org/2000/svg" xmlns:xlink="http://www.w3.org/1999/xlink" x="0px" y="0px"
	 viewBox="0 0 47 47" style="enable-background:new 0 0 47 47;" xml:space="preserve">
<style type="text/css">
	.st0{fill:#FFFFFF;}
</style>
<path class="st0" d="M46.98,23.5H0.02c0-12.97,10.51-23.48,23.48-23.48C36.47,0.02,46.98,10.53,46.98,23.5z M23.5,46.98
	c4.8,0,9.26-1.44,12.98-3.91H10.52C14.24,45.54,18.7,46.98,23.5,46.98z M6,39.15H41c1.07-1.2,2.02-2.51,2.83-3.91H3.17
	C3.98,36.64,4.93,37.95,6,39.15z M0.35,27.41c0.23,1.35,0.57,2.65,1.01,3.91h44.28c0.44-1.26,0.78-2.57,1.01-3.91H0.35z"/>
</svg>
