<?xml version="1.0" encoding="utf-8"?>
<!-- Generator: Adobe Illustrator 23.0.1, SVG Export Plug-In . SVG Version: 6.00 Build 0)  -->
<svg version="1.1" id="Layer_1" xmlns="http://www.w3.org/2000/svg" xmlns:xlink="http://www.w3.org/1999/xlink" x="0px" y="0px"
	 viewBox="0 0 2560 1440" style="enable-background:new 0 0 2560 1440;" xml:space="preserve">
<style type="text/css">
	.st0{fill:#1E1E1E;}
	.st1{fill:#FFFFFF;}
	.st2{fill:#AF0050;}
	.st3{fill:#FFABE1;}
	.st4{fill:#EA2FB9;}
</style>
<path id="path12_3_" class="st0" d="M0,1440h2560V0H0V1440z"/>
<g>
	<path class="st1" d="M208.2,68.6c-0.1-0.2-0.2-0.3-0.3-0.5c0.1,0.1,0.1,0.1,0.1,0.2C208.1,68.4,208.1,68.5,208.2,68.6z M346.8,175
		c-0.3-2.2-0.9-4.4-1.6-6.5c-0.7-2.1-1.6-4.1-2.5-6.1l0,0c0.3,2,0.5,3.9,0.3,5.9c-0.2,1.9-0.7,3.9-1.9,5.3c-1.2,1.5-3,2.3-4.8,2.6
		c-1.9,0.3-3.8,0.1-5.7-0.3c-2.7-0.5-5.2-1.4-7.8-2.4c0.1-0.1,0.2-0.2,0.4-0.3c3.7-3.5,6.9-7.3,9.5-11.4c15.9-24.2,13.7-57-7.1-79
		c-24.3-25.6-64.7-26.8-90.4-2.5c-3.2,3-6,6.3-8.4,9.8c-1.2-1.5-2.4-3.1-3.6-4.6c-2.4-3.2-4.8-6.3-7.1-9.6l-3.4-4.8
		c-1-1.4-1.9-2.8-2.9-4.2c-0.3-0.4-0.5-0.7-0.5-0.7c0.1,0.1,0.1,0.1,0.1,0.2c0,0.1,0.1,0.2,0.2,0.3c-0.1-0.2-0.2-0.3-0.3-0.5
		c8.1,15.6,17.8,30.3,28.4,44.4c5.3,7,10.9,13.8,16.7,20.5c-0.2,0.1,5.8-3.6,6-3.3c-2.1-2-4.2-4.1-6.3-6.2
		c-5.6-5.6-10.9-11.5-16-17.5c-3.1-3.6-6.1-7.3-9-11.1c1.6-1.9,3.3-3.8,5.2-5.6c23.9-22.6,61.5-21.6,84.1,2.3
		c19.4,20.5,21.4,51,6.5,73.6c-1.9,2.9-4.1,5.6-6.6,8.2c-3.1-1.5-6.2-3.2-9.2-5c-13.5-8.2-25.9-18.1-37.8-28.6
		c-0.5-0.5-1-0.9-1.6-1.4l22.5-24.4l-29.8,18.9l-5.7,3.6l-11.9,7.5l-4.6-11l-17,28.6l-17.5,13.6l8.3-0.4l-5.1,16.2l20.7-16.4
		l28.8,4.3l-6.6-21l12.3-13.3l0.4-0.4c2.6,2.8,5.4,5.4,8.1,8.1c6.4,6.1,13.1,11.8,20.2,17.1c3.5,2.7,7.2,5.2,10.9,7.6
		c1.9,1.2,3.8,2.4,5.7,3.5c1.9,1.1,3.9,2.1,5.9,3.1c4,2,8.1,3.8,12.5,4.9c2.2,0.6,4.4,1.1,6.7,1.2c2.3,0.2,4.7,0.1,6.9-0.9
		c1.1-0.4,2.2-1.1,3-2c0.9-0.9,1.5-2,1.9-3.1C347.1,179.6,347.1,177.3,346.8,175z M265.9,190.6c13.6,2.7,27.9,1,40.7-5.3
		c-0.9-0.6-1.8-1.3-2.6-1.9C292.2,190.1,278.8,192.5,265.9,190.6z M223.3,95.8c-6.9,12.3-9.3,26.5-7.4,40.1
		c-1.1-12.9,1.9-26.2,9.2-37.4C224.4,97.6,223.9,96.7,223.3,95.8z M640,78.9v1.8h-4.4v-2h-15.1v5.4h14.9c2.5,0,4.6,2.1,4.6,4.6v4.9
		c0,2.6-2.1,4.6-4.6,4.6h-14.7c-2.5,0-4.6-2.1-4.6-4.6v-1.8h4.4v2h15.1v-5.4h-14.9c-2.5,0-4.6-2.1-4.6-4.6v-4.9
		c0-2.6,2.1-4.6,4.6-4.6h14.7C638,74.3,640,76.4,640,78.9z M587.1,115.8c-1.7,2.2-3.6,4.6-5.4,6.9l-2.6,3.3l-8.1-10.1h-5.2
		c1.7,2.4,4.4,6,6.4,8.7l4.6,6.2v9h4.4v-8.9l11.1-15L587.1,115.8L587.1,115.8z M542.7,139.8h14.7c2.5,0,4.6-2.1,4.6-4.6v-4.9
		c0-2.6-2.1-4.6-4.6-4.6h-14.9v-5.4h15.1v2h4.4v-1.8c0-2.6-2.1-4.6-4.6-4.6h-14.7c-2.5,0-4.6,2.1-4.6,4.6v4.9c0,2.6,2.1,4.6,4.6,4.6
		h14.9v5.4h-15.1v-2H538v1.8C538,137.7,540.1,139.8,542.7,139.8z M646.7,115.8h-23.9v4.4h9.8v19.5h4.4v-19.5h9.8L646.7,115.8
		L646.7,115.8z M613.8,115.8h-14.7c-2.5,0-4.6,2.1-4.6,4.6v4.9c0,2.6,2.1,4.6,4.6,4.6H614v5.4h-15.1v-2h-4.4v1.8
		c0,2.6,2.1,4.6,4.6,4.6h14.7c2.5,0,4.6-2.1,4.6-4.6v-4.9c0-2.6-2.1-4.6-4.6-4.6h-14.9v-5.4H614v2h4.4v-1.8
		C618.4,117.9,616.3,115.8,613.8,115.8z M552.1,157.4h-23.9v4.4h9.8v19.5h4.4v-19.5h9.8L552.1,157.4L552.1,157.4z M671.8,74.3v19.3
		c0,2.6,2.1,4.6,4.6,4.6h14.7c2.5,0,4.6-2.1,4.6-4.6V74.3h-4.4v19.5h-15.1V74.3H671.8z M554.1,78.9v14.7c0,2.6-2.1,4.6-4.7,4.6
		h-19.3V74.3h19.3C552,74.3,554.1,76.4,554.1,78.9z M549.7,78.7h-15.1v15.1h15.1V78.7z M640.5,157.3v23.9h23.9v-4.4h-19.5v-19.6
		H640.5z M645,98.2h22v-4.4h-17.6v-5.4h14.2v-4.4h-14.2v-5.4H667v-4.4h-22V98.2z M590,173.8c0,0.1,0.1,0.1,0.2,0.2l0.2-0.2H590z
		 M590.5,173.1l-0.5-0.5v8.7h-4.4v-23.9h19.3c2.6,0,4.7,2.1,4.7,4.6v6.4c0,2.6-2.1,4.6-4.7,4.6h-1.3l2.1,2.5
		c1.3,1.5,2.6,3.1,3.8,4.5v1.1h-4.8l-6.9-8.2L590.5,173.1z M589.9,168.7H605v-6.9h-15.1V168.7z M673.1,120.2v-4.4h-22v23.9h22v-4.4
		h-17.6V130h14.2v-4.4h-14.2v-5.4H673.1z M576,181.3v-8h-15.1v8h-4.4V162c0-2.6,2.1-4.6,4.6-4.6h14.6c2.6,0,4.7,2.1,4.7,4.6v19.3
		H576z M576,168.9v-7.1h-15.1v7.1H576z M571.2,84.4l-8.1-10.1h-5.2c1.7,2.4,4.4,6,6.4,8.7l4.6,6.2v9h4.4v-8.9l11.1-15h-5.2
		c-1.8,2.2-3.6,4.6-5.5,6.9L571.2,84.4z M606.6,74.3H592c-2.5,0-4.6,2.1-4.6,4.6v4.9c0,2.6,2.1,4.6,4.6,4.6h14.9v5.4h-15.1v-2h-4.4
		v1.8c0,2.6,2.1,4.6,4.6,4.6h14.7c2.5,0,4.6-2.1,4.6-4.6v-4.9c0-2.6-2.1-4.6-4.6-4.6h-14.9v-5.4h15.1v2h4.4v-1.8
		C611.3,76.4,609.2,74.3,606.6,74.3z M704.8,139.8v-23.9H700l-8.6,10.3l-8.7-10.3h-4.8v23.9h4.4v-17.6l9.1,10.8
		c1.4-1.7,3-3.5,4.5-5.3c1.3-1.5,2.5-3,3.8-4.5l0.9-1.1v17.6L704.8,139.8L704.8,139.8z M724.6,93.6v-4.9c0-2.6-2.1-4.6-4.6-4.6H705
		v-5.4h15.1v2h4.4v-1.8c0-2.6-2.1-4.6-4.6-4.6h-14.7c-2.5,0-4.6,2.1-4.6,4.6v4.9c0,2.6,2.1,4.6,4.6,4.6h14.9v5.4H705v-2h-4.4v1.8
		c0,2.6,2.1,4.6,4.6,4.6H720C722.5,98.2,724.6,96.2,724.6,93.6z M438.8,132.3c0,0.1,0.1,0.1,0.1,0.2l0.2-0.2H438.8z M690.5,161.8
		v-4.4h-22v23.9h22v-4.4H673v-5.4h14.2v-4.4H673v-5.4L690.5,161.8L690.5,161.8z M717.3,161.8v-4.4h-22v23.9h22v-4.4h-17.6v-5.4h14.2
		v-4.4h-14.2v-5.4L717.3,161.8L717.3,161.8z M458.2,126.9c0,2.5-2.1,4.6-4.7,4.6h-1.3l2.2,2.6c1.3,1.5,2.6,3,3.8,4.5v1.1h-4.8
		l-6.9-8.2l-7.3,0l-0.5-0.5v8.7h-4.4v-23.9h19.3c2.6,0,4.7,2.1,4.7,4.6L458.2,126.9L458.2,126.9z M453.8,120.2h-15.1v6.9h15.1V120.2
		z M432,176.6V162c0-2.6,2.1-4.6,4.6-4.6h14.7c2.5,0,4.6,2.1,4.6,4.6v14.7c0,2.6-2.1,4.6-4.6,4.6h-14.7
		C434,181.3,432,179.2,432,176.6z M436.3,176.9h15.1v-15.1h-15.1V176.9z M424.7,139.8v-8h-15.1v8h-4.4v-19.3c0-2.6,2.1-4.6,4.6-4.6
		h14.6c2.6,0,4.7,2.1,4.7,4.6v19.3H424.7z M424.7,127.3v-7.1h-15.1v7.1C409.6,127.3,424.7,127.3,424.7,127.3z M405.3,98.2h22v-4.4
		h-17.6v-5.4h14.1v-4.4h-14.1v-5.4h17.6v-4.4h-22V98.2z M745.4,157.4h-23.9v4.4h9.8v19.5h4.4v-19.5h9.8L745.4,157.4L745.4,157.4z
		 M427.3,161.8v-4.4h-22v23.9h22v-4.4h-17.6v-5.4h14.1v-4.4h-14.1v-5.4L427.3,161.8L427.3,161.8z M505.7,139.8v-19.5h9.8v-4.4h-23.9
		v4.4h9.8v19.5H505.7z M465.5,181.3h19.2v-4.4h-19.5v-15.1h19.5v-4.4h-19.2c-2.5,0-4.6,2.1-4.6,4.6v14.7
		C460.9,179.2,463,181.3,465.5,181.3z M432,83.8c0,2.6,2.1,4.6,4.6,4.6h14.9v5.4h-15.1v-2H432v1.8c0,2.6,2.1,4.6,4.6,4.6h14.7
		c2.5,0,4.6-2.1,4.6-4.6v-4.9c0-2.6-2.1-4.6-4.6-4.6h-14.9v-5.4h15.1v2h4.4v-1.8c0-2.6-2.1-4.6-4.6-4.6h-14.7
		c-2.5,0-4.6,2.1-4.6,4.6V83.8z M519.9,115.8v23.9h4.4v-23.9H519.9z M523.8,171.7c0-2.6-2.1-4.6-4.6-4.6h-14.9v-5.4h15.1v2h4.4V162
		c0-2.6-2.1-4.6-4.6-4.6h-14.7c-2.5,0-4.6,2.1-4.6,4.6v4.9c0,2.6,2.1,4.6,4.6,4.6h14.9v5.4h-15.1v-2h-4.4v1.8c0,2.6,2.1,4.6,4.6,4.6
		h14.7c2.5,0,4.6-2.1,4.6-4.6V171.7z M525.1,93.6c0,2.6-2.1,4.6-4.6,4.6h-14.7c-2.5,0-4.6-2.1-4.6-4.6V78.9c0-2.6,2.1-4.6,4.6-4.6
		h14.7c2.5,0,4.6,2.1,4.6,4.6L525.1,93.6L525.1,93.6z M520.7,78.7h-15.1v15.1h15.1V78.7z M633,167.1h-14.2v-5.4h17.6v-4.4h-22v23.9
		h4.4v-9.8H633V167.1z M480.1,74.3h-14.7c-2.5,0-4.6,2.1-4.6,4.6v4.9c0,2.6,2.1,4.6,4.6,4.6h14.9v5.4h-15.1v-2h-4.4v1.8
		c0,2.6,2.1,4.6,4.6,4.6h14.7c2.5,0,4.6-2.1,4.6-4.6v-4.9c0-2.6-2.1-4.6-4.6-4.6h-14.9v-5.4h15.1v2h4.4v-1.8
		C484.7,76.4,482.6,74.3,480.1,74.3z M482.7,139.8v-8h-15.1v8h-4.4v-19.3c0-2.6,2.1-4.6,4.6-4.6h14.6c2.6,0,4.7,2.1,4.7,4.6v19.3
		H482.7z M482.7,127.3v-7.1h-15.1v7.1C467.6,127.3,482.7,127.3,482.7,127.3z"/>
	<polygon class="st2" points="2359.6,445.4 2422.6,382.4 2422.6,287.1 200.1,287.1 137.1,350.1 137.1,445.4 	"/>
	<polygon class="st3" points="2379.8,254.8 188.6,254.8 137.1,306.3 137.1,328.6 192.6,273.1 2422.6,273.1 2422.6,212 	"/>
	<path class="st3" d="M1720.5,173.5v-70.3h-35.2v-8.9h79.2v8.9h-35.1v70.3L1720.5,173.5L1720.5,173.5z M1810.3,173.5l-28.8-79.2h9.5
		l23.2,63.6l23.1-63.6h10.8l23.2,63.6l23-63.6h9.7l-28.8,79.2h-7.8l-24.6-67.7l-24.6,67.7H1810.3z M1925.6,173.5V94.3h9v79.2H1925.6
		z M1959.1,173.5V94.2h8.9v70.4h70.3v8.9H1959.1z M2056.8,173.5V94.3h9v79.2H2056.8z M2103.4,173.5c-2.4,0-4.6-0.6-6.7-1.8
		s-3.6-2.8-4.8-4.8c-1.2-2-1.8-4.2-1.8-6.7v-52.8c0-2.4,0.6-4.6,1.8-6.7c1.2-2,2.8-3.6,4.8-4.8c2-1.2,4.2-1.8,6.7-1.8h52.8
		c2.4,0,4.6,0.6,6.7,1.8c2,1.2,3.6,2.8,4.8,4.8c1.2,2,1.8,4.2,1.8,6.7v3.2h-8.9v-3.2c0-1.2-0.4-2.2-1.3-3c-0.8-0.8-1.9-1.3-3-1.3
		h-52.8c-1.2,0-2.2,0.4-3,1.3c-0.8,0.8-1.3,1.8-1.3,3v52.8c0,1.2,0.4,2.2,1.3,3c0.8,0.8,1.9,1.3,3,1.3h52.8c1.2,0,2.2-0.4,3-1.3
		s1.3-1.9,1.3-3v-19.6h-19.6v-9h28.5v28.6c0,2.4-0.6,4.6-1.8,6.7s-2.8,3.6-4.8,4.8c-2,1.2-4.2,1.8-6.7,1.8H2103.4z M2192.6,173.5
		V94.3h8.9v35.1h63.3V94.3h9v79.2h-9v-35.1h-63.3v35.1L2192.6,173.5L2192.6,173.5z M2328.4,173.5v-70.3h-35.2v-8.9h79.2v8.9h-35.1
		v70.3L2328.4,173.5L2328.4,173.5z"/>
	<path class="st3" d="M1340.3,127.4h-121c0-33.4,27.1-60.5,60.5-60.5S1340.3,94,1340.3,127.4z M1279.8,187.9
		c12.4,0,23.8-3.7,33.4-10.1h-66.9C1256,184.1,1267.5,187.9,1279.8,187.9z M1234.8,167.7h90.1c2.8-3.1,5.2-6.5,7.3-10.1h-104.8
		C1229.6,161.2,1232,164.6,1234.8,167.7z M1220.2,137.5c0.6,3.5,1.5,6.8,2.6,10.1h114.1c1.2-3.2,2-6.6,2.6-10.1H1220.2z"/>
	<g>
		<g>
			<polygon class="st2" points="1695.7,1241.6 1695.7,1151.6 2365.1,1151.6 2422.6,1209 2422.6,1241.6 			"/>
			<polygon class="st4" points="2422.6,1255.6 2422.6,1345.6 1753.1,1345.6 1695.7,1288.2 1695.7,1255.6 			"/>
		</g>
		<g>
			<polygon class="st2" points="137.1,1241.6 137.1,1151.6 806.6,1151.6 864,1209 864,1241.6 			"/>
			<polygon class="st4" points="864,1255.6 864,1345.6 194.5,1345.6 137.1,1288.2 137.1,1255.6 			"/>
		</g>
		<g>
			<polygon class="st2" points="916.4,1241.6 916.4,1151.6 1585.9,1151.6 1643.3,1209 1643.3,1241.6 			"/>
			<polygon class="st4" points="1643.3,1255.6 1643.3,1345.6 973.8,1345.6 916.4,1288.2 916.4,1255.6 			"/>
		</g>
		<polygon class="st3" points="1747.3,1359.6 2422.6,1359.6 2408.6,1373.6 1741.5,1373.6 1695.7,1327.8 1695.7,1308 		"/>
		<polygon class="st3" points="968,1359.6 1643.3,1359.6 1643.3,1373.6 962.2,1373.6 916.4,1327.8 916.4,1308 		"/>
		<polygon class="st3" points="188.7,1359.6 864,1359.6 864,1373.6 137.1,1373.6 137.1,1327.8 137.1,1308 		"/>
	</g>
</g>
</svg>
