<?xml version="1.0" encoding="UTF-8" standalone="no"?>
<svg
   xmlns:dc="http://purl.org/dc/elements/1.1/"
   xmlns:cc="http://creativecommons.org/ns#"
   xmlns:rdf="http://www.w3.org/1999/02/22-rdf-syntax-ns#"
   xmlns:svg="http://www.w3.org/2000/svg"
   xmlns="http://www.w3.org/2000/svg"
   viewBox="0 0 2559.6719 1440"
   height="1440"
   width="2559.6719"
   xml:space="preserve"
   id="svg2"
   version="1.1"><metadata
     id="metadata8"><rdf:RDF><cc:Work
         rdf:about=""><dc:format>image/svg+xml</dc:format><dc:type
           rdf:resource="http://purl.org/dc/dcmitype/StillImage" /><dc:title></dc:title></cc:Work></rdf:RDF></metadata><defs
     id="defs6"><clipPath
       id="clipPath48"
       clipPathUnits="userSpaceOnUse"><path
         id="path46"
         d="M 0,1080 H 1920 V 0 H 0 Z" /></clipPath><clipPath
       id="clipPath138"
       clipPathUnits="userSpaceOnUse"><path
         id="path136"
         d="M 0,1080 H 1920 V 0 H 0 Z" /></clipPath><clipPath
       id="clipPath182"
       clipPathUnits="userSpaceOnUse"><path
         id="path180"
         d="M 0,1080 H 1920 V 0 H 0 Z" /></clipPath></defs><g
     transform="matrix(1.3333333,0,0,-1.3333333,-0.32799999,1440)"
     id="g10"><path
       id="path12"
       style="fill:#1e1e1e;fill-opacity:1;fill-rule:nonzero;stroke:none"
       d="M 0.246,0 H 1920 V 1080 H 0.246 Z" /><g
       transform="translate(63.8705,223.4883)"
       id="g14"><path
         id="path16"
         style="fill:#a737a5;fill-opacity:1;fill-rule:nonzero;stroke:none"
         d="M 0,0 H 940.801 V -28.587 -66.361 H 0 Z" /></g><g
       transform="translate(63.8705,841.7114)"
       id="g18"><path
         id="path20"
         style="fill:#8c2e7c;fill-opacity:1;fill-rule:nonzero;stroke:none"
         d="m 0,0 47.213,47.213 h 1728.581 v -71.458 l -41.701,-47.213 H 0 Z" /></g><g
       transform="translate(114.9086,80.4707)"
       id="g22"><path
         id="path24"
         style="fill:#ff6ce5;fill-opacity:1;fill-rule:nonzero;stroke:none"
         d="m 0,0 h 851.987 l 37.776,37.774 V 66.36 H -51.038 V 50.995 Z" /></g><g
       id="g42"><g
         clip-path="url(#clipPath48)"
         id="g44"><g
           transform="translate(152.2875,1017.3945)"
           id="g50"><path
             id="path52"
             style="fill:#ffffff;fill-opacity:1;fill-rule:nonzero;stroke:none"
             d="M 0,0 C -0.027,0.042 -0.055,0.085 -0.083,0.127 -0.024,0.03 0.036,-0.066 0.095,-0.164 0.058,-0.1 0.025,-0.043 0,0" /></g><g
           transform="translate(152.2045,1017.522)"
           id="g54"><path
             id="path56"
             style="fill:#ffffff;fill-opacity:1;fill-rule:nonzero;stroke:none"
             d="M 0,0 Z" /></g><g
           transform="translate(152.2045,1017.522)"
           id="g58"><path
             id="path60"
             style="fill:#ffffff;fill-opacity:1;fill-rule:nonzero;stroke:none"
             d="M 0,0 C 0.016,-0.021 0.03,-0.043 0.046,-0.064 0.021,-0.023 0.005,0 0,0" /></g><g
           transform="translate(232.474,959.6865)"
           id="g62"><path
             id="path64"
             style="fill:#ffffff;fill-opacity:1;fill-rule:nonzero;stroke:none"
             d="M 0,0 Z" /></g><g
           transform="translate(152.2045,1017.522)"
           id="g66"><path
             id="path68"
             style="fill:#ffffff;fill-opacity:1;fill-rule:nonzero;stroke:none"
             d="M 0,0 Z" /></g><g
           transform="translate(152.2045,1017.522)"
           id="g70"><path
             id="path72"
             style="fill:#ffffff;fill-opacity:1;fill-rule:nonzero;stroke:none"
             d="M 0,0 Z" /></g><g
           transform="translate(152.2045,1017.522)"
           id="g74"><path
             id="path76"
             style="fill:#ffffff;fill-opacity:1;fill-rule:nonzero;stroke:none"
             d="M 0,0 Z" /></g><g
           transform="translate(235.7621,953.2241)"
           id="g78"><path
             id="path80"
             style="fill:#ffffff;fill-opacity:1;fill-rule:nonzero;stroke:none"
             d="m 0,0 c -0.169,1.342 -0.522,2.637 -0.945,3.896 -0.419,1.263 -0.952,2.479 -1.51,3.677 v -0.001 0.001 0 -0.001 C -2.271,6.394 -2.183,5.197 -2.289,4.024 -2.399,2.859 -2.735,1.695 -3.457,0.817 -4.174,-0.065 -5.242,-0.57 -6.362,-0.736 c -1.127,-0.174 -2.295,-0.063 -3.436,0.149 -2.292,0.437 -4.494,1.33 -6.636,2.312 -2.141,0.995 -4.207,2.161 -6.243,3.374 -8.108,4.934 -15.586,10.894 -22.705,17.205 -0.35,0.311 -0.695,0.628 -1.044,0.942 l -3.141,-3.406 c 1.627,-1.686 3.288,-3.34 4.99,-4.949 3.863,-3.644 7.903,-7.106 12.147,-10.315 2.12,-1.608 4.313,-3.122 6.554,-4.564 1.123,-0.719 2.261,-1.415 3.416,-2.084 1.157,-0.665 2.337,-1.294 3.535,-1.891 2.4,-1.182 4.87,-2.261 7.486,-2.979 1.305,-0.359 2.644,-0.638 4.022,-0.743 1.37,-0.101 2.813,-0.032 4.17,0.513 0.674,0.27 1.313,0.677 1.826,1.212 0.512,0.534 0.896,1.18 1.129,1.855 C 0.178,-2.743 0.161,-1.335 0,0" /></g><g
           transform="translate(179.9975,985.3345)"
           id="g82"><path
             id="path84"
             style="fill:#ffffff;fill-opacity:1;fill-rule:nonzero;stroke:none"
             d="m 0,0 c -3.354,3.374 -6.555,6.906 -9.638,10.539 -3.081,3.634 -6.042,7.372 -8.934,11.163 -1.443,1.899 -2.86,3.818 -4.251,5.755 l -2.074,2.916 c -0.595,0.831 -1.171,1.675 -1.766,2.505 -0.183,0.271 -0.285,0.417 -0.298,0.419 0.005,0 0.021,-0.023 0.046,-0.064 -0.016,0.021 -0.03,0.043 -0.046,0.064 v 0 c 0.028,-0.042 0.056,-0.085 0.084,-0.127 0.025,-0.043 0.058,-0.1 0.094,-0.164 -0.059,0.098 -0.119,0.194 -0.178,0.291 v 0 C -22.078,23.921 -16.24,15.042 -9.864,6.589 -6.653,2.377 -3.315,-1.742 0.182,-5.724 0.057,-5.781 3.664,-3.562 3.785,-3.712 2.51,-2.488 1.248,-1.25 0,0" /></g><g
           transform="translate(152.2045,1017.522)"
           id="g86"><path
             id="path88"
             style="fill:#ffffff;fill-opacity:1;fill-rule:nonzero;stroke:none"
             d="M 0,0 Z" /></g><g
           transform="translate(185.0424,979.6772)"
           id="g90"><path
             id="path92"
             style="fill:#ffffff;fill-opacity:1;fill-rule:nonzero;stroke:none"
             d="m 0,0 -3.445,-2.184 -7.159,-4.537 -2.792,6.611 -10.21,-17.21 -10.543,-8.153 5.018,0.227 -3.046,-9.723 12.466,9.886 17.304,-2.556 -3.983,12.645 7.398,8.017 3.018,3.272 13.904,15.069 z" /></g><g
           transform="translate(187.0844,943.8477)"
           id="g94"><path
             id="path96"
             style="fill:#ffffff;fill-opacity:1;fill-rule:nonzero;stroke:none"
             d="M 0,0 C 8.181,-1.625 16.802,-0.577 24.457,3.179 23.934,3.562 23.406,3.955 22.876,4.353 15.849,0.325 7.77,-1.114 0,0" /></g><g
           transform="translate(157.0082,976.7603)"
           id="g98"><path
             id="path100"
             style="fill:#ffffff;fill-opacity:1;fill-rule:nonzero;stroke:none"
             d="M 0,0 C -0.685,7.779 1.173,15.724 5.529,22.498 5.16,23.044 4.798,23.587 4.443,24.126 0.325,16.717 -1.169,8.213 0,0" /></g><g
           transform="translate(222.9945,1008.6455)"
           id="g102"><path
             id="path104"
             style="fill:#ffffff;fill-opacity:1;fill-rule:nonzero;stroke:none"
             d="m 0,0 c -14.6,15.421 -38.936,16.087 -54.356,1.488 -2.33,-2.205 -4.321,-4.632 -5.974,-7.217 0.4,-0.564 0.808,-1.132 1.223,-1.702 1.227,1.654 2.616,3.225 4.163,4.69 14.351,13.587 37,12.967 50.586,-1.385 11.647,-12.303 12.853,-30.703 3.919,-44.265 -1.488,-2.257 -3.255,-4.381 -5.304,-6.321 -0.554,-0.525 -1.122,-1.026 -1.7,-1.509 -0.41,-0.342 -0.825,-0.671 -1.245,-0.991 0.305,-0.205 0.608,-0.407 0.911,-0.605 0.356,-0.235 0.711,-0.466 1.062,-0.692 1.828,1.212 3.579,2.593 5.227,4.153 2.219,2.101 4.133,4.405 5.739,6.855 C 13.807,-32.935 12.497,-13.201 0,0" /></g></g></g><text
       id="text108"
       style="font-variant:normal;font-weight:900;font-stretch:normal;font-size:20.8118px;font-family:Orbitron;-inkscape-font-specification:Orbitron-Black;writing-mode:lr-tb;fill:#ffffff;fill-opacity:1;fill-rule:nonzero;stroke:none"
       transform="matrix(1,0,0,-1,269.4033,999.1211)"><tspan
         id="tspan106"
         y="0"
         x="0 16.231123 33.546539 50.861958 57.771477 75.128517 92.385658 109.65113 126.96655 144.20496 160.40486 177.80977">ESS ODYSSEUS</tspan></text>
<text
       id="text114"
       style="font-variant:normal;font-weight:500;font-stretch:normal;font-size:20.8118px;font-family:Orbitron;-inkscape-font-specification:Orbitron-Medium;writing-mode:lr-tb;fill:#ffffff;fill-opacity:1;fill-rule:nonzero;stroke:none"
       transform="matrix(1,0,0,-1,269.4033,974.14694)"><tspan
         id="tspan110"
         y="0"
         x="0 17.525618 34.836872 52.693398 68.968224 73.754936 79.998482 97.1474 113.96333 131.60342 147.86784 163.99074">ARATI SYSTEM</tspan><tspan
         id="tspan112"
         y="24.974159"
         x="0 16.149958 33.506996 50.822414 57.065956 74.706039 90.968376 108.49191 125.80317 141.47653 158.33826 174.44034 190.94618">EOC STARFLEET</tspan></text>
<g
       id="g132"><g
         clip-path="url(#clipPath138)"
         id="g134"><g
           transform="translate(1638.2328,986.6016)"
           id="g140"><path
             id="path142"
             style="fill:#8c2e7c;fill-opacity:1;fill-rule:nonzero;stroke:none"
             d="M 0,0 -45.342,45.342 H 2.089 L 47.454,-0.022 2.089,-45.387 H -45.342 L 0,-0.044 Z" /></g><g
           transform="translate(1705.7347,986.6016)"
           id="g144"><path
             id="path146"
             style="fill:#a737a5;fill-opacity:1;fill-rule:nonzero;stroke:none"
             d="M 0,0 -45.343,45.342 H 2.089 L 47.453,-0.022 2.089,-45.387 H -45.343 L 0,-0.044 Z" /></g><g
           transform="translate(1773.2367,986.6016)"
           id="g148"><path
             id="path150"
             style="fill:#ff6ce5;fill-opacity:1;fill-rule:nonzero;stroke:none"
             d="M 0,0 -45.343,45.342 H 2.089 L 47.453,-0.022 2.089,-45.387 H -45.343 L 0,-0.044 Z" /></g><g
           transform="translate(1122.6136,986.5576)"
           id="g152"><path
             id="path154"
             style="fill:#8c2e7c;fill-opacity:1;fill-rule:nonzero;stroke:none"
             d="M 0,0 45.343,-45.343 H -2.089 L -47.454,0.022 -2.089,45.386 H 45.343 L 0,0.043 Z" /></g><g
           transform="translate(1055.1117,986.5576)"
           id="g156"><path
             id="path158"
             style="fill:#a737a5;fill-opacity:1;fill-rule:nonzero;stroke:none"
             d="M 0,0 45.343,-45.343 H -2.089 L -47.453,0.022 -2.089,45.386 H 45.343 L 0,0.043 Z" /></g><g
           transform="translate(987.6107,986.5576)"
           id="g160"><path
             id="path162"
             style="fill:#ff6ce5;fill-opacity:1;fill-rule:nonzero;stroke:none"
             d="M 0,0 45.342,-45.343 H -2.089 L -47.454,0.022 -2.089,45.386 H 45.342 L 0,0.043 Z" /></g><g
           transform="translate(1184.8236,941.2148)"
           id="g164"><path
             id="path166"
             style="fill:#5d2973;fill-opacity:1;fill-rule:nonzero;stroke:none"
             d="M 0,0 -45.365,45.365 0,90.729 H 391.2 L 436.564,45.365 391.2,0 Z" /></g></g></g><g
       id="g176"><g
         clip-path="url(#clipPath182)"
         id="g178"><g
           transform="translate(119.6645,897.7422)"
           id="g184"><path
             id="path186"
             style="fill:#ff6ce5;fill-opacity:1;fill-rule:nonzero;stroke:none"
             d="M 0,0 19.75,17.786 H 1662.642 L 1720,75.145 V 0 Z" /></g><g
           transform="translate(947.0209,58.5107)"
           id="g188"><path
             id="path190"
             style="fill:#ff6ce5;fill-opacity:1;fill-rule:nonzero;stroke:none"
             d="M 0,0 14.935,14.23 H -837.259 L -883.15,60.122 V 0 Z" /></g></g></g></g></svg>