<?xml version="1.0" encoding="utf-8"?>
<!-- Generator: Adobe Illustrator 23.0.1, SVG Export Plug-In . SVG Version: 6.00 Build 0)  -->
<svg version="1.1" id="Layer_1" xmlns="http://www.w3.org/2000/svg" xmlns:xlink="http://www.w3.org/1999/xlink" x="0px" y="0px"
	 viewBox="0 0 2560 1440" style="enable-background:new 0 0 2560 1440;" xml:space="preserve">
<style type="text/css">
	.st0{fill:#1E1E1E;}
	.st1{fill:#FFFFFF;}
	.st2{fill:#F4A416;}
	.st3{fill:#F4F482;}
	.st4{fill:#F23900;}
</style>
<g>
	<path id="path12_3_" class="st0" d="M0,1440h2560V0H0V1440z"/>
	<path class="st1" d="M208.3,68.6c-0.1-0.2-0.2-0.3-0.3-0.5c0.1,0.1,0.1,0.1,0.1,0.2C208.2,68.4,208.3,68.5,208.3,68.6z M347,175
		c-0.3-2.2-0.9-4.4-1.6-6.5c-0.7-2.1-1.6-4.1-2.5-6.1l0,0c0.3,2,0.5,3.9,0.3,5.9c-0.2,1.9-0.7,3.9-1.9,5.3c-1.2,1.5-3,2.3-4.8,2.6
		c-1.9,0.3-3.8,0.1-5.7-0.3c-2.7-0.5-5.2-1.4-7.8-2.4c0.1-0.1,0.2-0.2,0.4-0.3c3.7-3.5,6.9-7.3,9.5-11.4c15.9-24.2,13.7-57-7.1-79
		c-24.3-25.6-64.7-26.8-90.4-2.5c-3.2,3-6,6.3-8.4,9.8c-1.2-1.5-2.4-3.1-3.6-4.6c-2.4-3.2-4.8-6.3-7.1-9.6l-3.4-4.8
		c-1-1.4-1.9-2.8-2.9-4.2c-0.3-0.4-0.5-0.7-0.5-0.7c0.1,0.1,0.1,0.1,0.1,0.2c0,0.1,0.1,0.2,0.2,0.3c-0.1-0.2-0.2-0.3-0.3-0.5
		c8.1,15.6,17.8,30.3,28.4,44.4c5.3,7,10.9,13.8,16.7,20.5c-0.2,0.1,5.8-3.6,6-3.3c-2.1-2-4.2-4.1-6.3-6.2
		c-5.6-5.6-10.9-11.5-16-17.5c-3.1-3.6-6.1-7.3-9-11.1c1.6-1.9,3.3-3.8,5.2-5.6c23.9-22.6,61.5-21.6,84.1,2.3
		c19.4,20.5,21.4,51,6.5,73.6c-1.9,2.9-4.1,5.6-6.6,8.2c-3.1-1.5-6.2-3.2-9.2-5c-13.5-8.2-25.9-18.1-37.8-28.6
		c-0.5-0.5-1-0.9-1.6-1.4l22.5-24.4l-29.8,18.9l-5.7,3.6l-11.9,7.5l-4.6-11l-17,28.6l-17.5,13.6l8.3-0.4l-5.1,16.2l20.7-16.4
		l28.8,4.3l-6.6-21l12.3-13.3l0.4-0.4c2.6,2.8,5.4,5.4,8.1,8.1c6.4,6.1,13.1,11.8,20.2,17.1c3.5,2.7,7.2,5.2,10.9,7.6
		c1.9,1.2,3.8,2.4,5.7,3.5c1.9,1.1,3.9,2.1,5.9,3.1c4,2,8.1,3.8,12.5,4.9c2.2,0.6,4.4,1.1,6.7,1.2c2.3,0.2,4.7,0.1,6.9-0.9
		c1.1-0.4,2.2-1.1,3-2c0.9-0.9,1.5-2,1.9-3.1C347.3,179.6,347.3,177.3,347,175z M266,190.6c13.6,2.7,27.9,1,40.7-5.3
		c-0.9-0.6-1.8-1.3-2.6-1.9C292.4,190.1,279,192.5,266,190.6z M223.4,95.8c-6.9,12.3-9.3,26.5-7.4,40.1c-1.1-12.9,1.9-26.2,9.2-37.4
		C224.6,97.6,224,96.7,223.4,95.8z M640.2,78.9v1.8h-4.4v-2h-15.1v5.4h14.9c2.5,0,4.6,2.1,4.6,4.6v4.9c0,2.6-2.1,4.6-4.6,4.6h-14.7
		c-2.5,0-4.6-2.1-4.6-4.6v-1.8h4.4v2h15.1v-5.4h-14.9c-2.5,0-4.6-2.1-4.6-4.6v-4.9c0-2.6,2.1-4.6,4.6-4.6h14.7
		C638.1,74.3,640.2,76.4,640.2,78.9z M587.3,115.8c-1.7,2.2-3.6,4.6-5.4,6.9l-2.6,3.3l-8.1-10.1H566c1.7,2.4,4.4,6,6.4,8.7l4.6,6.2
		v9h4.4v-8.9l11.1-15L587.3,115.8L587.3,115.8z M542.8,139.8h14.7c2.5,0,4.6-2.1,4.6-4.6v-4.9c0-2.6-2.1-4.6-4.6-4.6h-14.9v-5.4
		h15.1v2h4.4v-1.8c0-2.6-2.1-4.6-4.6-4.6h-14.7c-2.5,0-4.6,2.1-4.6,4.6v4.9c0,2.6,2.1,4.6,4.6,4.6h14.9v5.4h-15.1v-2h-4.4v1.8
		C538.2,137.7,540.3,139.8,542.8,139.8z M646.8,115.8h-23.9v4.4h9.8v19.5h4.4v-19.5h9.8L646.8,115.8L646.8,115.8z M614,115.8h-14.7
		c-2.5,0-4.6,2.1-4.6,4.6v4.9c0,2.6,2.1,4.6,4.6,4.6h14.9v5.4H599v-2h-4.4v1.8c0,2.6,2.1,4.6,4.6,4.6H614c2.5,0,4.6-2.1,4.6-4.6
		v-4.9c0-2.6-2.1-4.6-4.6-4.6H599v-5.4h15.1v2h4.4v-1.8C618.6,117.9,616.5,115.8,614,115.8z M552.2,157.4h-23.9v4.4h9.8v19.5h4.4
		v-19.5h9.8L552.2,157.4L552.2,157.4z M672,74.3v19.3c0,2.6,2.1,4.6,4.6,4.6h14.7c2.5,0,4.6-2.1,4.6-4.6V74.3h-4.4v19.5h-15.1V74.3
		H672z M554.3,78.9v14.7c0,2.6-2.1,4.6-4.7,4.6h-19.3V74.3h19.3C552.2,74.3,554.3,76.4,554.3,78.9z M549.8,78.7h-15.1v15.1h15.1
		V78.7z M640.6,157.3v23.9h23.9v-4.4H645v-19.6H640.6z M645.2,98.2h22v-4.4h-17.6v-5.4h14.2v-4.4h-14.2v-5.4h17.6v-4.4h-22V98.2z
		 M590.2,173.8c0,0.1,0.1,0.1,0.2,0.2l0.2-0.2H590.2z M590.6,173.1l-0.5-0.5v8.7h-4.4v-23.9H605c2.6,0,4.7,2.1,4.7,4.6v6.4
		c0,2.6-2.1,4.6-4.7,4.6h-1.3l2.1,2.5c1.3,1.5,2.6,3.1,3.8,4.5v1.1h-4.8l-6.9-8.2L590.6,173.1z M590.1,168.7h15.1v-6.9h-15.1V168.7z
		 M673.3,120.2v-4.4h-22v23.9h22v-4.4h-17.6V130h14.2v-4.4h-14.2v-5.4H673.3z M576.2,181.3v-8H561v8h-4.4V162c0-2.6,2.1-4.6,4.6-4.6
		h14.6c2.6,0,4.7,2.1,4.7,4.6v19.3H576.2z M576.2,168.9v-7.1H561v7.1H576.2z M571.3,84.4l-8.1-10.1h-5.2c1.7,2.4,4.4,6,6.4,8.7
		l4.6,6.2v9h4.4v-8.9l11.1-15h-5.2c-1.8,2.2-3.6,4.6-5.5,6.9L571.3,84.4z M606.8,74.3h-14.7c-2.5,0-4.6,2.1-4.6,4.6v4.9
		c0,2.6,2.1,4.6,4.6,4.6H607v5.4h-15.1v-2h-4.4v1.8c0,2.6,2.1,4.6,4.6,4.6h14.7c2.5,0,4.6-2.1,4.6-4.6v-4.9c0-2.6-2.1-4.6-4.6-4.6
		h-14.9v-5.4H607v2h4.4v-1.8C611.4,76.4,609.3,74.3,606.8,74.3z M705,139.8v-23.9h-4.8l-8.6,10.3l-8.7-10.3H678v23.9h4.4v-17.6
		l9.1,10.8c1.4-1.7,3-3.5,4.5-5.3c1.3-1.5,2.5-3,3.8-4.5l0.9-1.1v17.6L705,139.8L705,139.8z M724.8,93.6v-4.9c0-2.6-2.1-4.6-4.6-4.6
		h-14.9v-5.4h15.1v2h4.4v-1.8c0-2.6-2.1-4.6-4.6-4.6h-14.7c-2.5,0-4.6,2.1-4.6,4.6v4.9c0,2.6,2.1,4.6,4.6,4.6h14.9v5.4h-15.1v-2
		h-4.4v1.8c0,2.6,2.1,4.6,4.6,4.6h14.7C722.7,98.2,724.8,96.2,724.8,93.6z M438.9,132.3c0,0.1,0.1,0.1,0.1,0.2l0.2-0.2H438.9z
		 M690.7,161.8v-4.4h-22v23.9h22v-4.4h-17.6v-5.4h14.2v-4.4h-14.2v-5.4L690.7,161.8L690.7,161.8z M717.5,161.8v-4.4h-22v23.9h22
		v-4.4h-17.6v-5.4h14.2v-4.4h-14.2v-5.4L717.5,161.8L717.5,161.8z M458.4,126.9c0,2.5-2.1,4.6-4.7,4.6h-1.3l2.2,2.6
		c1.3,1.5,2.6,3,3.8,4.5v1.1h-4.8l-6.9-8.2l-7.3,0l-0.5-0.5v8.7h-4.4v-23.9h19.3c2.6,0,4.7,2.1,4.7,4.6L458.4,126.9L458.4,126.9z
		 M453.9,120.2h-15.1v6.9h15.1V120.2z M432.1,176.6V162c0-2.6,2.1-4.6,4.6-4.6h14.7c2.5,0,4.6,2.1,4.6,4.6v14.7
		c0,2.6-2.1,4.6-4.6,4.6h-14.7C434.2,181.3,432.1,179.2,432.1,176.6z M436.5,176.9h15.1v-15.1h-15.1V176.9z M424.9,139.8v-8h-15.1v8
		h-4.4v-19.3c0-2.6,2.1-4.6,4.6-4.6h14.6c2.6,0,4.7,2.1,4.7,4.6v19.3H424.9z M424.9,127.3v-7.1h-15.1v7.1
		C409.8,127.3,424.9,127.3,424.9,127.3z M405.4,98.2h22v-4.4h-17.6v-5.4H424v-4.4h-14.1v-5.4h17.6v-4.4h-22V98.2z M745.5,157.4
		h-23.9v4.4h9.8v19.5h4.4v-19.5h9.8V157.4z M427.4,161.8v-4.4h-22v23.9h22v-4.4h-17.6v-5.4H424v-4.4h-14.1v-5.4L427.4,161.8
		L427.4,161.8z M505.9,139.8v-19.5h9.8v-4.4h-23.9v4.4h9.8v19.5H505.9z M465.7,181.3h19.2v-4.4h-19.5v-15.1h19.5v-4.4h-19.2
		c-2.5,0-4.6,2.1-4.6,4.6v14.7C461.1,179.2,463.1,181.3,465.7,181.3z M432.2,83.8c0,2.6,2.1,4.6,4.6,4.6h14.9v5.4h-15.1v-2h-4.4v1.8
		c0,2.6,2.1,4.6,4.6,4.6h14.7c2.5,0,4.6-2.1,4.6-4.6v-4.9c0-2.6-2.1-4.6-4.6-4.6h-14.9v-5.4h15.1v2h4.4v-1.8c0-2.6-2.1-4.6-4.6-4.6
		h-14.7c-2.5,0-4.6,2.1-4.6,4.6V83.8z M520.1,115.8v23.9h4.4v-23.9H520.1z M524,171.7c0-2.6-2.1-4.6-4.6-4.6h-14.9v-5.4h15.1v2h4.4
		V162c0-2.6-2.1-4.6-4.6-4.6h-14.7c-2.5,0-4.6,2.1-4.6,4.6v4.9c0,2.6,2.1,4.6,4.6,4.6h14.9v5.4h-15.1v-2h-4.4v1.8
		c0,2.6,2.1,4.6,4.6,4.6h14.7c2.5,0,4.6-2.1,4.6-4.6V171.7z M525.3,93.6c0,2.6-2.1,4.6-4.6,4.6H506c-2.5,0-4.6-2.1-4.6-4.6V78.9
		c0-2.6,2.1-4.6,4.6-4.6h14.7c2.5,0,4.6,2.1,4.6,4.6V93.6z M520.8,78.7h-15.1v15.1h15.1V78.7z M633.2,167.1H619v-5.4h17.6v-4.4h-22
		v23.9h4.4v-9.8h14.2L633.2,167.1L633.2,167.1z M480.3,74.3h-14.7c-2.5,0-4.6,2.1-4.6,4.6v4.9c0,2.6,2.1,4.6,4.6,4.6h14.9v5.4h-15.1
		v-2H461v1.8c0,2.6,2.1,4.6,4.6,4.6h14.7c2.5,0,4.6-2.1,4.6-4.6v-4.9c0-2.6-2.1-4.6-4.6-4.6h-14.9v-5.4h15.1v2h4.4v-1.8
		C484.9,76.4,482.8,74.3,480.3,74.3z M482.8,139.8v-8h-15.1v8h-4.4v-19.3c0-2.6,2.1-4.6,4.6-4.6h14.6c2.6,0,4.7,2.1,4.7,4.6v19.3
		H482.8z M482.8,127.3v-7.1h-15.1v7.1C467.7,127.3,482.8,127.3,482.8,127.3z"/>
	<polygon class="st2" points="2359.8,445.4 2422.7,382.4 2422.7,287.1 200.2,287.1 137.3,350.1 137.3,445.4 	"/>
	<polygon class="st3" points="2379.9,254.8 188.8,254.8 137.3,306.3 137.3,328.6 192.8,273.1 2422.7,273.1 2422.7,212 	"/>
	<path class="st3" d="M1899.6,173.5c-2.4,0-4.6-0.6-6.7-1.8s-3.6-2.8-4.8-4.8c-1.2-2-1.8-4.2-1.8-6.7v-3.1h8.9v3.1
		c0,1.2,0.4,2.2,1.3,3c0.8,0.8,1.8,1.3,3,1.3h52.8c1.2,0,2.2-0.4,3-1.3s1.3-1.9,1.3-3v-17.7c0-1.2-0.4-2.2-1.3-3
		c-0.8-0.8-1.8-1.2-3-1.2h-52.8c-2.4,0-4.6-0.6-6.7-1.8s-3.6-2.8-4.8-4.8c-1.2-2-1.8-4.2-1.8-6.6v-17.7c0-2.4,0.6-4.6,1.8-6.7
		c1.2-2,2.8-3.6,4.8-4.8c2-1.2,4.2-1.8,6.7-1.8h52.8c2.4,0,4.6,0.6,6.7,1.8c2,1.2,3.6,2.8,4.8,4.8c1.2,2,1.8,4.2,1.8,6.7v3.1h-8.9
		v-3.1c0-1.2-0.4-2.2-1.3-3c-0.8-0.8-1.8-1.3-3-1.3h-52.8c-1.2,0-2.2,0.4-3,1.3c-0.8,0.8-1.3,1.8-1.3,3v17.7c0,1.2,0.4,2.2,1.3,3
		c0.8,0.8,1.8,1.2,3,1.2h52.8c2.4,0,4.6,0.6,6.7,1.8s3.6,2.8,4.8,4.8c1.2,2,1.8,4.2,1.8,6.6v17.7c0,2.4-0.6,4.6-1.8,6.7
		s-2.8,3.6-4.8,4.8c-2,1.2-4.2,1.8-6.7,1.8L1899.6,173.5L1899.6,173.5z M2001.3,173.5c-2.4,0-4.6-0.6-6.7-1.8s-3.6-2.8-4.8-4.8
		c-1.2-2-1.8-4.2-1.8-6.7v-52.8c0-2.4,0.6-4.6,1.8-6.7c1.2-2,2.8-3.6,4.8-4.8c2-1.2,4.2-1.8,6.7-1.8h52.8c2.4,0,4.6,0.6,6.7,1.8
		c2,1.2,3.6,2.8,4.8,4.8c1.2,2,1.8,4.2,1.8,6.7v52.8c0,2.4-0.6,4.6-1.8,6.7s-2.8,3.6-4.8,4.8c-2,1.2-4.2,1.8-6.7,1.8H2001.3z
		 M2001.3,164.6h52.8c1.2,0,2.2-0.4,3-1.3s1.3-1.9,1.3-3v-52.8c0-1.2-0.4-2.2-1.3-3c-0.8-0.8-1.9-1.3-3-1.3h-52.8
		c-1.2,0-2.2,0.4-3,1.3c-0.8,0.8-1.3,1.8-1.3,3v52.8c0,1.2,0.4,2.2,1.3,3C1999.1,164.2,2000.1,164.6,2001.3,164.6z M2090.5,173.5
		V94.2h8.9v70.4h70.3v8.9H2090.5z M2187.3,107.5c0-2.4,0.6-4.6,1.8-6.7s2.8-3.6,4.8-4.8c2-1.2,4.2-1.8,6.7-1.8h52.8
		c2.4,0,4.6,0.6,6.7,1.8c2,1.2,3.6,2.8,4.8,4.8c1.2,2,1.8,4.2,1.8,6.7v66h-8.9v-28.9h-61.4v28.9h-8.9L2187.3,107.5L2187.3,107.5z
		 M2257.6,135.6v-28.2c0-1.2-0.4-2.2-1.3-3c-0.8-0.8-1.9-1.3-3-1.3h-52.8c-1.2,0-2.2,0.4-3,1.3c-0.8,0.8-1.3,1.8-1.3,3v28.2H2257.6z
		 M2290.1,173.5V94.4h66c2.4,0,4.6,0.6,6.7,1.8s3.6,2.8,4.8,4.8c1.2,2,1.8,4.2,1.8,6.6v23.2c0,2.4-0.6,4.6-1.8,6.6
		c-1.2,2-2.8,3.6-4.8,4.8c-2,1.2-4.2,1.8-6.7,1.8H2299v29.5L2290.1,173.5L2290.1,173.5z M2303.3,135h52.8c1.2,0,2.2-0.4,3-1.2
		c0.8-0.8,1.3-1.8,1.3-3v-23.2c0-1.2-0.4-2.2-1.3-3c-0.8-0.8-1.9-1.3-3-1.3h-52.8c-1.2,0-2.2,0.4-3,1.3c-0.8,0.8-1.3,1.8-1.3,3v23.2
		c0,1.2,0.4,2.2,1.3,3C2301.1,134.6,2302.1,135,2303.3,135z M2356.9,173.5l-25.9-30.8h11.7l26,30.7v0.1H2356.9z"/>
	<path class="st3" d="M1318.7,127.4c0,21.4-17.3,38.7-38.7,38.7s-38.7-17.4-38.7-38.7s17.3-38.7,38.7-38.7S1318.7,106,1318.7,127.4z
		 M1343.5,127.4c0-35-28.5-63.5-63.5-63.5s-63.5,28.5-63.5,63.5s28.5,63.5,63.5,63.5S1343.5,162.4,1343.5,127.4z M1337.5,127.4
		c0,31.7-25.8,57.5-57.5,57.5s-57.5-25.8-57.5-57.5s25.8-57.5,57.5-57.5S1337.5,95.7,1337.5,127.4z"/>
	<g>
		<g>
			<polygon class="st4" points="1695.8,1241.6 1695.8,1151.6 2365.3,1151.6 2422.7,1209 2422.7,1241.6 			"/>
			<polygon class="st2" points="2422.7,1255.6 2422.7,1345.6 1753.3,1345.6 1695.8,1288.2 1695.8,1255.6 			"/>
		</g>
		<g>
			<polygon class="st4" points="137.3,1241.6 137.3,1151.6 806.8,1151.6 864.2,1209 864.2,1241.6 			"/>
			<polygon class="st2" points="864.2,1255.6 864.2,1345.6 194.7,1345.6 137.3,1288.2 137.3,1255.6 			"/>
		</g>
		<g>
			<polygon class="st4" points="916.6,1241.6 916.6,1151.6 1586,1151.6 1643.4,1209 1643.4,1241.6 			"/>
			<polygon class="st2" points="1643.4,1255.6 1643.4,1345.6 974,1345.6 916.6,1288.2 916.6,1255.6 			"/>
		</g>
		<polygon class="st3" points="1747.4,1359.6 2422.7,1359.6 2408.7,1373.6 1741.7,1373.6 1695.8,1327.8 1695.8,1308 		"/>
		<polygon class="st3" points="968.2,1359.6 1643.4,1359.6 1643.4,1373.6 962.4,1373.6 916.6,1327.8 916.6,1308 		"/>
		<polygon class="st3" points="188.9,1359.6 864.2,1359.6 864.2,1373.6 137.3,1373.6 137.3,1327.8 137.3,1308 		"/>
	</g>
</g>
</svg>
