<?xml version="1.0" encoding="UTF-8" standalone="no"?>
<svg
   xmlns:dc="http://purl.org/dc/elements/1.1/"
   xmlns:cc="http://creativecommons.org/ns#"
   xmlns:rdf="http://www.w3.org/1999/02/22-rdf-syntax-ns#"
   xmlns:svg="http://www.w3.org/2000/svg"
   xmlns="http://www.w3.org/2000/svg"
   viewBox="0 0 2559.6719 1440"
   height="1440"
   width="2559.6719"
   xml:space="preserve"
   id="svg2"
   version="1.1"><metadata
     id="metadata8"><rdf:RDF><cc:Work
         rdf:about=""><dc:format>image/svg+xml</dc:format><dc:type
           rdf:resource="http://purl.org/dc/dcmitype/StillImage" /><dc:title></dc:title></cc:Work></rdf:RDF></metadata><defs
     id="defs6"><clipPath
       id="clipPath48"
       clipPathUnits="userSpaceOnUse"><path
         id="path46"
         d="M 0,1080 H 1920 V 0 H 0 Z" /></clipPath><clipPath
       id="clipPath138"
       clipPathUnits="userSpaceOnUse"><path
         id="path136"
         d="M 0,1080 H 1920 V 0 H 0 Z" /></clipPath><clipPath
       id="clipPath182"
       clipPathUnits="userSpaceOnUse"><path
         id="path180"
         d="M 0,1080 H 1920 V 0 H 0 Z" /></clipPath></defs><g
     transform="matrix(1.3333333,0,0,-1.3333333,-0.32799999,1440)"
     id="g10"><path
       id="path12"
       style="fill:#1e1e1e;fill-opacity:1;fill-rule:nonzero;stroke:none"
       d="M 0.246,0 H 1920 V 1080 H 0.246 Z" /><g
       transform="translate(63.8706,223.9883)"
       id="g14"><path
         id="path16"
         style="fill:#fb9833;fill-opacity:1;fill-rule:nonzero;stroke:none"
         d="M 0,0 H 940.8 V -28.587 -66.361 H 0 Z" /></g><g
       transform="translate(63.8706,841.7114)"
       id="g18"><path
         id="path20"
         style="fill:#fb9833;fill-opacity:1;fill-rule:nonzero;stroke:none"
         d="m 0,0 47.213,47.213 1728.581,0.25 v -71.458 l -41.702,-47.463 H 0 Z" /></g><g
       transform="translate(114.9087,80.9707)"
       id="g22"><path
         id="path24"
         style="fill:#b42304;fill-opacity:1;fill-rule:nonzero;stroke:none"
         d="m 0,0 h 851.988 l 37.774,37.774 V 66.36 h -940.8 V 50.995 Z" /></g><g
       id="g42"><g
         clip-path="url(#clipPath48)"
         id="g44"><g
           transform="translate(152.2876,1017.3945)"
           id="g50"><path
             id="path52"
             style="fill:#ffffff;fill-opacity:1;fill-rule:nonzero;stroke:none"
             d="M 0,0 C -0.028,0.042 -0.055,0.085 -0.083,0.127 -0.025,0.03 0.036,-0.066 0.094,-0.164 0.058,-0.1 0.025,-0.043 0,0" /></g><g
           transform="translate(152.2041,1017.522)"
           id="g54"><path
             id="path56"
             style="fill:#ffffff;fill-opacity:1;fill-rule:nonzero;stroke:none"
             d="M 0,0 Z" /></g><g
           transform="translate(152.2041,1017.522)"
           id="g58"><path
             id="path60"
             style="fill:#ffffff;fill-opacity:1;fill-rule:nonzero;stroke:none"
             d="M 0,0 C 0.016,-0.021 0.03,-0.043 0.046,-0.064 0.021,-0.023 0.005,0 0,0" /></g><g
           transform="translate(232.4746,959.6865)"
           id="g62"><path
             id="path64"
             style="fill:#ffffff;fill-opacity:1;fill-rule:nonzero;stroke:none"
             d="M 0,0 Z" /></g><g
           transform="translate(152.2041,1017.522)"
           id="g66"><path
             id="path68"
             style="fill:#ffffff;fill-opacity:1;fill-rule:nonzero;stroke:none"
             d="M 0,0 Z" /></g><g
           transform="translate(152.2041,1017.522)"
           id="g70"><path
             id="path72"
             style="fill:#ffffff;fill-opacity:1;fill-rule:nonzero;stroke:none"
             d="M 0,0 Z" /></g><g
           transform="translate(152.2041,1017.522)"
           id="g74"><path
             id="path76"
             style="fill:#ffffff;fill-opacity:1;fill-rule:nonzero;stroke:none"
             d="M 0,0 Z" /></g><g
           transform="translate(235.7622,953.2241)"
           id="g78"><path
             id="path80"
             style="fill:#ffffff;fill-opacity:1;fill-rule:nonzero;stroke:none"
             d="m 0,0 c -0.168,1.342 -0.523,2.637 -0.945,3.896 -0.42,1.263 -0.953,2.479 -1.511,3.677 l 10e-4,-0.001 -10e-4,0.001 v 0 -0.001 C -2.271,6.394 -2.183,5.197 -2.29,4.024 -2.4,2.859 -2.735,1.695 -3.457,0.817 -4.174,-0.065 -5.242,-0.57 -6.363,-0.736 c -1.126,-0.174 -2.295,-0.063 -3.435,0.149 -2.292,0.437 -4.494,1.33 -6.636,2.312 -2.142,0.995 -4.207,2.161 -6.243,3.374 -8.109,4.934 -15.586,10.894 -22.705,17.205 -0.35,0.311 -0.696,0.628 -1.044,0.942 l -3.142,-3.406 c 1.627,-1.686 3.288,-3.34 4.991,-4.949 3.863,-3.644 7.903,-7.106 12.147,-10.315 2.12,-1.608 4.312,-3.122 6.555,-4.564 1.122,-0.719 2.259,-1.415 3.415,-2.084 1.157,-0.665 2.337,-1.294 3.535,-1.891 2.399,-1.182 4.87,-2.261 7.485,-2.979 1.306,-0.359 2.645,-0.638 4.023,-0.743 1.37,-0.101 2.812,-0.032 4.17,0.513 0.674,0.27 1.313,0.677 1.826,1.212 0.512,0.534 0.895,1.18 1.129,1.855 C 0.177,-2.743 0.161,-1.335 0,0" /></g><g
           transform="translate(179.9971,985.3345)"
           id="g82"><path
             id="path84"
             style="fill:#ffffff;fill-opacity:1;fill-rule:nonzero;stroke:none"
             d="m 0,0 c -3.354,3.374 -6.554,6.906 -9.637,10.539 -3.081,3.634 -6.042,7.372 -8.935,11.163 -1.442,1.899 -2.859,3.818 -4.251,5.755 l -2.074,2.916 c -0.594,0.831 -1.17,1.675 -1.766,2.505 -0.183,0.271 -0.285,0.417 -0.297,0.419 0.004,0 0.02,-0.023 0.045,-0.064 -0.015,0.021 -0.03,0.043 -0.045,0.064 v 0 c 0.028,-0.042 0.055,-0.085 0.083,-0.127 0.025,-0.043 0.058,-0.1 0.094,-0.164 -0.058,0.098 -0.119,0.194 -0.177,0.291 v 0 C -22.078,23.921 -16.239,15.042 -9.864,6.589 -6.653,2.377 -3.315,-1.742 0.182,-5.724 0.057,-5.781 3.664,-3.562 3.786,-3.712 2.51,-2.488 1.248,-1.25 0,0" /></g><g
           transform="translate(152.2041,1017.522)"
           id="g86"><path
             id="path88"
             style="fill:#ffffff;fill-opacity:1;fill-rule:nonzero;stroke:none"
             d="M 0,0 Z" /></g><g
           transform="translate(185.042,979.6772)"
           id="g90"><path
             id="path92"
             style="fill:#ffffff;fill-opacity:1;fill-rule:nonzero;stroke:none"
             d="m 0,0 -3.445,-2.184 -7.159,-4.537 -2.792,6.611 -10.21,-17.21 -10.542,-8.153 5.017,0.227 -3.046,-9.723 12.467,9.886 17.303,-2.556 -3.982,12.645 7.397,8.017 3.019,3.272 13.903,15.069 z" /></g><g
           transform="translate(187.0845,943.8477)"
           id="g94"><path
             id="path96"
             style="fill:#ffffff;fill-opacity:1;fill-rule:nonzero;stroke:none"
             d="M 0,0 C 8.181,-1.625 16.802,-0.577 24.457,3.179 23.933,3.562 23.406,3.955 22.876,4.353 15.848,0.325 7.77,-1.114 0,0" /></g><g
           transform="translate(157.0078,976.7603)"
           id="g98"><path
             id="path100"
             style="fill:#ffffff;fill-opacity:1;fill-rule:nonzero;stroke:none"
             d="M 0,0 C -0.684,7.779 1.173,15.724 5.53,22.498 5.161,23.044 4.798,23.587 4.443,24.126 0.325,16.717 -1.169,8.213 0,0" /></g><g
           transform="translate(222.9941,1008.6455)"
           id="g102"><path
             id="path104"
             style="fill:#ffffff;fill-opacity:1;fill-rule:nonzero;stroke:none"
             d="m 0,0 c -14.599,15.421 -38.935,16.087 -54.356,1.488 -2.329,-2.205 -4.32,-4.632 -5.974,-7.217 0.401,-0.564 0.809,-1.132 1.223,-1.702 1.228,1.654 2.616,3.225 4.163,4.69 14.352,13.587 37,12.967 50.587,-1.385 11.647,-12.303 12.852,-30.703 3.918,-44.265 -1.488,-2.257 -3.255,-4.381 -5.304,-6.321 -0.554,-0.525 -1.122,-1.026 -1.7,-1.509 -0.409,-0.342 -0.825,-0.671 -1.245,-0.991 0.305,-0.205 0.609,-0.407 0.911,-0.605 0.356,-0.235 0.711,-0.466 1.063,-0.692 1.828,1.212 3.579,2.593 5.226,4.153 2.22,2.101 4.133,4.405 5.739,6.855 C 13.807,-32.935 12.498,-13.201 0,0" /></g></g></g><g
       id="text108"
       style="font-variant:normal;font-weight:900;font-stretch:normal;font-size:20.8118px;font-family:Orbitron;-inkscape-font-specification:Orbitron-Black;writing-mode:lr-tb;fill:#ffffff;fill-opacity:1;fill-rule:nonzero;stroke:none"
       transform="matrix(1,0,0,-1,269.4033,999.1211)"
       aria-label="ESS ODYSSEUS"><path
         id="path239"
         d="M 15.046931,-14.984496 H 1.2070844 V 0 H 15.046931 V -3.2466408 H 4.474537 v -2.6222868 h 8.512026 V -9.1155684 H 4.474537 v -2.6222866 h 10.572394 z" /><path
         id="path241"
         d="m 32.277021,-11.90435 c 0,-1.706567 -1.394391,-3.080146 -3.080147,-3.080146 h -8.824203 c -1.706567,0 -3.080146,1.373579 -3.080146,3.080146 v 2.955276 c 0,1.7065676 1.373579,3.0801464 3.080146,3.0801464 h 8.636897 v 2.6222868 H 20.518354 V -4.474537 h -3.225829 v 1.3943906 C 17.292525,-1.3735788 18.666104,0 20.372671,0 h 8.824203 c 1.685756,0 3.080147,-1.3735788 3.080147,-3.0801464 V -6.035422 c 0,-1.7065676 -1.394391,-3.0801464 -3.080147,-3.0801464 h -8.67852 v -2.6222866 h 8.491214 v 1.227896 h 3.267453 z" /><path
         id="path243"
         d="m 49.592437,-11.90435 c 0,-1.706567 -1.39439,-3.080146 -3.080146,-3.080146 h -8.824203 c -1.706568,0 -3.080147,1.373579 -3.080147,3.080146 v 2.955276 c 0,1.7065676 1.373579,3.0801464 3.080147,3.0801464 h 8.636897 v 2.6222868 H 37.83377 V -4.474537 h -3.225829 v 1.3943906 C 34.607941,-1.3735788 35.98152,0 37.688088,0 h 8.824203 c 1.685756,0 3.080146,-1.3735788 3.080146,-3.0801464 V -6.035422 c 0,-1.7065676 -1.39439,-3.0801464 -3.080146,-3.0801464 H 37.83377 v -2.6222866 h 8.491215 v 1.227896 h 3.267452 z" /><path
         id="path245"
         d="m 61.97546,-14.984496 c -1.706567,0 -3.080146,1.373579 -3.080146,3.080146 v 8.8242036 C 58.895314,-1.3735788 60.268893,0 61.97546,0 h 8.824204 c 1.685755,0 3.080146,-1.3735788 3.080146,-3.0801464 V -11.90435 c 0,-1.706567 -1.394391,-3.080146 -3.080146,-3.080146 z m 0.145683,3.246641 h 8.491214 v 8.4912142 h -8.491214 z" /><path
         id="path247"
         d="M 76.335602,-14.984496 V 0 h 11.883537 c 1.706568,0 3.100959,-1.3735788 3.100959,-3.0801464 V -11.90435 c 0,-1.706567 -1.394391,-3.080146 -3.100959,-3.080146 z m 3.225829,3.246641 h 8.491214 v 8.4912142 h -8.491214 z" /><path
         id="path249"
         d="m 105.97576,-14.984496 c -1.49845,1.914686 -3.16339,3.995866 -4.68265,5.9105512 l -4.703468,-5.9105512 h -3.850183 c 1.165461,1.602509 2.89284,3.975054 4.203983,5.723245 l 2.726346,3.6628768 V 0 h 3.246642 v -5.5775624 l 6.95114,-9.4069336 z" /><path
         id="path251"
         d="m 125.69703,-11.90435 c 0,-1.706567 -1.39439,-3.080146 -3.08015,-3.080146 h -8.8242 c -1.70657,0 -3.08015,1.373579 -3.08015,3.080146 v 2.955276 c 0,1.7065676 1.37358,3.0801464 3.08015,3.0801464 h 8.6369 v 2.6222868 h -8.49122 V -4.474537 h -3.22583 v 1.3943906 C 110.71253,-1.3735788 112.08611,0 113.79268,0 h 8.8242 c 1.68576,0 3.08015,-1.3735788 3.08015,-3.0801464 V -6.035422 c 0,-1.7065676 -1.39439,-3.0801464 -3.08015,-3.0801464 h -8.67852 v -2.6222866 h 8.49122 v 1.227896 h 3.26745 z" /><path
         id="path253"
         d="m 143.01245,-11.90435 c 0,-1.706567 -1.39439,-3.080146 -3.08015,-3.080146 h -8.8242 c -1.70657,0 -3.08015,1.373579 -3.08015,3.080146 v 2.955276 c 0,1.7065676 1.37358,3.0801464 3.08015,3.0801464 h 8.6369 v 2.6222868 h -8.49122 V -4.474537 h -3.22583 v 1.3943906 C 128.02795,-1.3735788 129.40153,0 131.1081,0 h 8.8242 c 1.68576,0 3.08015,-1.3735788 3.08015,-3.0801464 V -6.035422 c 0,-1.7065676 -1.39439,-3.0801464 -3.08015,-3.0801464 h -8.67852 v -2.6222866 h 8.49122 v 1.227896 h 3.26745 z" /><path
         id="path255"
         d="M 159.25189,-14.984496 H 145.41204 V 0 h 13.83985 v -3.2466408 h -10.5724 v -2.6222868 h 8.51203 v -3.2466408 h -8.51203 v -2.6222866 h 10.5724 z" /><path
         id="path257"
         d="M 164.75453,-14.984496 H 161.5287 V -3.0801464 C 161.5287,-1.3735788 162.90228,0 164.60885,0 h 8.8242 c 1.68575,0 3.08014,-1.3735788 3.08014,-3.0801464 V -14.984496 h -3.26745 v 11.7378552 h -8.49121 z" /><path
         id="path259"
         d="m 193.85567,-11.90435 c 0,-1.706567 -1.39439,-3.080146 -3.08015,-3.080146 h -8.8242 c -1.70657,0 -3.08015,1.373579 -3.08015,3.080146 v 2.955276 c 0,1.7065676 1.37358,3.0801464 3.08015,3.0801464 h 8.63689 v 2.6222868 H 182.097 V -4.474537 h -3.22583 v 1.3943906 C 178.87117,-1.3735788 180.24475,0 181.95132,0 h 8.8242 c 1.68576,0 3.08015,-1.3735788 3.08015,-3.0801464 V -6.035422 c 0,-1.7065676 -1.39439,-3.0801464 -3.08015,-3.0801464 H 182.097 v -2.6222866 h 8.49121 v 1.227896 h 3.26746 z" /></g><g
       id="text114"
       style="font-variant:normal;font-weight:500;font-stretch:normal;font-size:20.8118px;font-family:Orbitron;-inkscape-font-specification:Orbitron-Medium;writing-mode:lr-tb;fill:#ffffff;fill-opacity:1;fill-rule:nonzero;stroke:none"
       transform="matrix(1,0,0,-1,269.4033,974.14694)"
       aria-label="ARATI SYSTEM
EOC STARFLEET"><path
         id="path192"
         d="m 4.2872308,-14.984496 c -1.7065676,0 -3.0801464,1.373579 -3.0801464,3.080146 V 0 h 3.225829 V -4.8283376 H 12.924128 V 0 h 3.267452 v -11.90435 c 0,-1.706567 -1.39439,-3.080146 -3.100958,-3.080146 z m 0.1456826,6.9095176 v -3.6628766 h 8.4912146 v 3.6628766 z" /><path
         id="path194"
         d="m 33.654763,-11.883538 c 0,-1.685756 -1.394391,-3.080146 -3.100959,-3.080146 H 18.670267 V 0 h 3.225829 v -4.8075258 c 0.02081,0.020812 0.06244,0.020812 0.06244,0.020812 0,-0.083247 -0.02081,-0.1248708 -0.06244,-0.1248708 l 4.28723,-0.020812 L 30.324875,0 h 3.329888 v -1.1030254 c -1.04059,-1.248708 -2.185239,-2.5806632 -3.246641,-3.8293712 h 0.145682 c 1.706568,0 3.100959,-1.3943906 3.100959,-3.0801464 z m -11.758667,0.145683 h 8.491214 v 3.5588176 h -8.491214 z" /><path
         id="path196"
         d="m 39.124103,-14.984496 c -1.706568,0 -3.080146,1.373579 -3.080146,3.080146 V 0 h 3.225829 V -4.8283376 H 47.761 V 0 h 3.267453 v -11.90435 c 0,-1.706567 -1.394391,-3.080146 -3.100959,-3.080146 z m 0.145683,6.9095176 V -11.737855 H 47.761 v 3.6628766 z" /><path
         id="path198"
         d="m 53.109634,-14.984496 v 3.246641 h 5.868927 V 0 h 3.246641 v -11.737855 h 5.868928 v -3.246641 z" /><path
         id="path200"
         d="m 70.154496,0 h 3.246641 v -14.984496 h -3.246641 z" /><path
         id="path202"
         d="m 96.04438,-11.90435 c 0,-1.706567 -1.394391,-3.080146 -3.080147,-3.080146 H 84.14003 c -1.706568,0 -3.080146,1.373579 -3.080146,3.080146 v 2.955276 c 0,1.7065676 1.373578,3.0801464 3.080146,3.0801464 h 8.636897 v 2.6222868 H 84.285713 V -4.474537 h -3.225829 v 1.3943906 C 81.059884,-1.3735788 82.433462,0 84.14003,0 h 8.824203 c 1.685756,0 3.080147,-1.3735788 3.080147,-3.0801464 V -6.035422 c 0,-1.7065676 -1.394391,-3.0801464 -3.080147,-3.0801464 h -8.67852 v -2.6222866 h 8.491214 v 1.227896 h 3.267453 z" /><path
         id="path204"
         d="m 110.73751,-14.984496 c -1.49845,1.914686 -3.1634,3.995866 -4.68266,5.9105512 l -4.70347,-5.9105512 h -3.850179 c 1.16546,1.602509 2.892839,3.975054 4.203979,5.723245 l 2.72635,3.6628768 V 0 h 3.24664 v -5.5775624 l 6.95114,-9.4069336 z" /><path
         id="path206"
         d="m 130.00923,-11.90435 c 0,-1.706567 -1.39439,-3.080146 -3.08015,-3.080146 h -8.8242 c -1.70657,0 -3.08015,1.373579 -3.08015,3.080146 v 2.955276 c 0,1.7065676 1.37358,3.0801464 3.08015,3.0801464 h 8.6369 v 2.6222868 h -8.49122 V -4.474537 h -3.22583 v 1.3943906 C 115.02473,-1.3735788 116.39831,0 118.10488,0 h 8.8242 c 1.68576,0 3.08015,-1.3735788 3.08015,-3.0801464 V -6.035422 c 0,-1.7065676 -1.39439,-3.0801464 -3.08015,-3.0801464 h -8.67852 v -2.6222866 h 8.49122 v 1.227896 h 3.26745 z" /><path
         id="path208"
         d="m 132.01966,-14.984496 v 3.246641 h 5.86893 V 0 h 3.24664 v -11.737855 h 5.86893 v -3.246641 z" /><path
         id="path210"
         d="M 162.91478,-14.984496 H 149.07493 V 0 h 13.83985 v -3.2466408 h -10.5724 v -2.6222868 h 8.51203 v -3.2466408 h -8.51203 v -2.6222866 h 10.5724 z" /><path
         id="path212"
         d="m 173.56417,-8.9282622 -5.07808,-6.0562338 H 165.1562 V 0 h 3.22583 v -10.031288 l 5.18214,6.1394814 c 1.66494,-1.9563092 3.47557,-4.16236 5.16132,-6.1602924 V 0 h 3.24664 v -14.984496 h -3.3507 z" /><path
         id="path214"
         d="M 15.046931,9.9896632 H 1.2070844 V 24.974159 H 15.046931 V 21.727518 H 4.474537 v -2.622286 h 8.512026 V 15.858591 H 4.474537 v -2.622287 h 10.572394 z" /><path
         id="path216"
         d="m 20.353941,9.9896632 c -1.706567,0 -3.080146,1.3735788 -3.080146,3.0801468 v 8.824203 c 0,1.706567 1.373579,3.080146 3.080146,3.080146 h 8.824203 c 1.685756,0 3.080147,-1.373579 3.080147,-3.080146 V 13.06981 c 0,-1.706568 -1.394391,-3.0801468 -3.080147,-3.0801468 z m 0.145683,3.2466408 h 8.491214 v 8.491214 h -8.491214 z" /><path
         id="path218"
         d="M 49.615329,13.236304 V 9.9896632 H 37.752603 c -1.706567,0 -3.080146,1.3735788 -3.080146,3.0801468 v 8.824203 c 0,1.706567 1.373579,3.080146 3.080146,3.080146 H 49.615329 V 21.727518 H 37.898286 v -8.491214 z" /><path
         id="path220"
         d="m 73.111854,13.06981 c 0,-1.706568 -1.394391,-3.0801468 -3.080146,-3.0801468 h -8.824204 c -1.706567,0 -3.080146,1.3735788 -3.080146,3.0801468 v 2.955275 c 0,1.706568 1.373579,3.080147 3.080146,3.080147 h 8.636897 v 2.622286 h -8.491214 v -1.227896 h -3.225829 v 1.394391 c 0,1.706567 1.373579,3.080146 3.080146,3.080146 h 8.824204 c 1.685755,0 3.080146,-1.373579 3.080146,-3.080146 v -2.955276 c 0,-1.706567 -1.394391,-3.080146 -3.080146,-3.080146 h -8.678521 v -2.622287 h 8.491214 V 14.4642 h 3.267453 z" /><path
         id="path222"
         d="m 75.122275,9.9896632 v 3.2466408 h 5.868928 v 11.737855 h 3.246641 V 13.236304 h 5.868927 V 9.9896632 Z" /><path
         id="path224"
         d="m 95.255607,9.9896632 c -1.706568,0 -3.080146,1.3735788 -3.080146,3.0801468 v 11.904349 h 3.225829 v -4.828337 h 8.49121 v 4.828337 h 3.26746 V 13.06981 c 0,-1.706568 -1.39439,-3.0801468 -3.10096,-3.0801468 z m 0.145683,6.9095178 v -3.662877 h 8.49121 v 3.662877 z" /><path
         id="path226"
         d="m 124.62106,13.090621 c 0,-1.685755 -1.39439,-3.080146 -3.10096,-3.080146 h -11.88354 v 14.963684 h 3.22583 v -4.807526 c 0.0208,0.02081 0.0624,0.02081 0.0624,0.02081 0,-0.08325 -0.0208,-0.124871 -0.0624,-0.124871 l 4.28723,-0.02081 4.14155,4.932396 h 3.32989 v -1.103025 c -1.04059,-1.248708 -2.18524,-2.580663 -3.24664,-3.829371 h 0.14568 c 1.70657,0 3.10096,-1.394391 3.10096,-3.080147 z m -11.75867,0.145683 h 8.49122 v 3.558818 h -8.49122 z" /><path
         id="path228"
         d="M 127.01025,9.9896632 V 24.974159 h 3.26746 v -5.868927 h 8.51202 v -3.246641 h -8.51202 V 13.236304 H 140.8501 V 9.9896632 Z" /><path
         id="path230"
         d="m 142.6628,24.974159 h 14.9845 V 21.727518 H 145.88863 V 9.9688514 h -3.22583 z" /><path
         id="path232"
         d="M 173.38519,9.9896632 H 159.54534 V 24.974159 h 13.83985 v -3.246641 h -10.5724 v -2.622286 h 8.51203 v -3.246641 h -8.51203 v -2.622287 h 10.5724 z" /><path
         id="path234"
         d="M 189.48727,9.9896632 H 175.64742 V 24.974159 h 13.83985 v -3.246641 h -10.57239 v -2.622286 h 8.51202 v -3.246641 h -8.51202 v -2.622287 h 10.57239 z" /><path
         id="path236"
         d="m 191.36242,9.9896632 v 3.2466408 h 5.86893 v 11.737855 h 3.24664 V 13.236304 h 5.86892 V 9.9896632 Z" /></g><g
       id="g132"><g
         clip-path="url(#clipPath138)"
         id="g134"><g
           transform="translate(1638.2334,986.6016)"
           id="g140"><path
             id="path142"
             style="fill:#eb5a01;fill-opacity:1;fill-rule:nonzero;stroke:none"
             d="M 0,0 -45.343,45.342 H 2.089 L 47.453,-0.022 2.089,-45.387 H -45.343 L 0,-0.044 Z" /></g><g
           transform="translate(1705.7344,986.6016)"
           id="g144"><path
             id="path146"
             style="fill:#fb9d3d;fill-opacity:1;fill-rule:nonzero;stroke:none"
             d="M 0,0 -45.342,45.342 H 2.089 L 47.454,-0.022 2.089,-45.387 H -45.342 L 0,-0.044 Z" /></g><g
           transform="translate(1773.2363,986.6016)"
           id="g148"><path
             id="path150"
             style="fill:#ffe3ac;fill-opacity:1;fill-rule:nonzero;stroke:none"
             d="M 0,0 -45.343,45.342 H 2.089 L 47.453,-0.022 2.089,-45.387 H -45.343 L 0,-0.044 Z" /></g><g
           transform="translate(1122.6133,986.5576)"
           id="g152"><path
             id="path154"
             style="fill:#eb5a01;fill-opacity:1;fill-rule:nonzero;stroke:none"
             d="M 0,0 45.343,-45.343 H -2.089 L -47.453,0.022 -2.089,45.386 H 45.343 L 0,0.043 Z" /></g><g
           transform="translate(1055.1123,986.5576)"
           id="g156"><path
             id="path158"
             style="fill:#fb9d3d;fill-opacity:1;fill-rule:nonzero;stroke:none"
             d="M 0,0 45.342,-45.343 H -2.089 L -47.454,0.022 -2.089,45.386 H 45.342 L 0,0.043 Z" /></g><g
           transform="translate(987.6104,986.5576)"
           id="g160"><path
             id="path162"
             style="fill:#ffe3ac;fill-opacity:1;fill-rule:nonzero;stroke:none"
             d="M 0,0 45.343,-45.343 H -2.089 L -47.454,0.022 -2.089,45.386 H 45.343 L 0,0.043 Z" /></g><g
           transform="translate(1184.8232,941.2148)"
           id="g164"><path
             id="path166"
             style="fill:#b42304;fill-opacity:1;fill-rule:nonzero;stroke:none"
             d="M 0,0 -45.364,45.365 0,90.729 H 391.2 L 436.564,45.365 391.2,0 Z" /></g></g></g><g
       id="g176"><g
         clip-path="url(#clipPath182)"
         id="g178"><g
           transform="translate(119.6646,897.7422)"
           id="g184"><path
             id="path186"
             style="fill:#ffe3ac;fill-opacity:1;fill-rule:nonzero;stroke:none"
             d="M 0,0 19.75,17.786 H 1662.642 L 1720,75.145 V 0 Z" /></g><g
           transform="translate(947.0205,58.0107)"
           id="g188"><path
             id="path190"
             style="fill:#ffe3ac;fill-opacity:1;fill-rule:nonzero;stroke:none"
             d="M 0,0 14.936,14.23 H -837.258 L -883.15,60.122 V 0 Z" /></g></g></g></g></svg>